
<svg width="47" height="48" viewBox="0 0 47 48" fill="none" xmlns="http://www.w3.org/2000/svg">
<g clip-path="url(#clip0_1080_822)">
<path d="M46.5347 1.84834L45.2312 0.0102539L39.7956 0.795228C39.3146 2.22698 38.6676 5.3724 32.6626 8.40726V14.6042L38.8169 13.0422V30.1654L45.1593 30.6575L46.5347 29.3204V1.84834Z" fill="#414141"/>
<path fill-rule="evenodd" clip-rule="evenodd" d="M17.3096 5.33789L26.238 7.02531L37.3523 44.3337L29.788 45.1573L26.7484 43.9797L24.8333 37.7757L15.5384 38.1921L13.0556 46.9043L2.48867 48.0098L0.183533 45.995L13.5576 7.3385L17.3096 5.33789ZM20.153 20.8958L17.2217 30.6851H23.4507L20.5194 20.8958H20.153Z" fill="#EB140A"/>
<path d="M32.6626 14.6042C32.6626 14.6042 36.0744 13.4872 38.817 10.8062V13.0397C37.3406 14.2724 35.3672 14.9303 35.3672 14.9303L32.6626 14.6042Z" fill="#0D0D0D"/>
<path d="M45.2316 0.0102539L45.2256 1.39752C45.4633 9.86638 45.4468 18.3906 45.1703 26.8595C45.1703 26.7986 45.1703 26.7378 45.1703 26.677L45.1592 30.6572L46.9008 29.4631V1.73472L45.2316 0.0102539Z" fill="#0D0D0D"/>
<path d="M45.2273 1.38184C45.4705 9.85621 45.4526 18.3901 45.1706 26.859C44.9274 18.3846 44.9453 9.85067 45.2273 1.38184Z" fill="#ACACAC"/>
<path d="M29.788 45.1574L27.6315 37.6504L24.8327 37.7755L26.6472 44.0518L29.788 45.1574Z" fill="#820000"/>
<path d="M23.0642 30.6851L20.3824 21.0111L21.9085 15.9917L26.0999 30.6851H23.0642Z" fill="#820000"/>
<path d="M26.0999 7.00329L17.3079 5.33936L12.6924 12.7045L5.19275 40.5969C11.2808 38.7671 15.3228 35.0025 18.4194 30.6852H17.4462L21.9085 15.9918L23.3241 20.9559C26.1828 13.062 26.0999 7.00329 26.0999 6.99776V7.00329Z" fill="#FF3F36"/>
<path d="M17.3072 5.34082L13.5308 7.28093L0 45.9492L2.48901 48.0102L17.3072 5.34082Z" fill="#B80000"/>
<path d="M15.0234 11.9287C11.1141 23.9963 6.89053 36.1137 2.48903 48.0099C6.3984 35.9423 10.622 23.8249 15.0234 11.9287Z" fill="#FDC9C4"/>
</g>
<defs>
<clipPath id="clip0_1080_822">
<rect width="46.9008" height="48" fill="white"/>
</clipPath>
</defs>
</svg>
