<svg width="35" height="24" viewBox="0 0 35 24" fill="none" xmlns="http://www.w3.org/2000/svg">
<path d="M34.017 3.59396L34.0595 3.86534C33.6487 2.44058 32.5395 1.34119 31.1299 0.941039L31.1002 0.934116C28.4496 0.230732 17.7837 0.230732 17.7837 0.230732C17.7837 0.230732 7.14463 0.216886 4.46716 0.934116C3.03068 1.34119 1.92002 2.44058 1.51628 3.83627L1.50919 3.86534C0.518957 8.92057 0.511874 14.9949 1.55311 20.4073L1.50919 20.1332C1.92002 21.5579 3.02926 22.6573 4.43883 23.0575L4.46858 23.0644C7.11629 23.7692 17.7851 23.7692 17.7851 23.7692C17.7851 23.7692 28.4227 23.7692 31.1016 23.0644C32.5395 22.6573 33.6501 21.5579 34.0539 20.1623L34.061 20.1332C34.5115 17.7821 34.7693 15.0766 34.7693 12.3129C34.7693 12.2118 34.7693 12.1093 34.7679 12.0069C34.7693 11.9127 34.7693 11.8006 34.7693 11.6884C34.7693 8.92334 34.5115 6.2178 34.017 3.59396ZM14.3809 17.0552V6.95719L23.2576 12.0138L14.3809 17.0552Z" fill="#BBBBBB"/>
</svg>
