<svg width="14" height="12" viewBox="0 0 14 12" fill="none" xmlns="http://www.w3.org/2000/svg">
<path d="M7.00003 0L0 3.84V9.59999L2.49999 12H11.5L14 9.59999V3.84L7.00003 0ZM13 5.75999L9.61 7.6224L12.11 9.23999L11.835 9.63838L8.79506 7.67999H5.225L2.225 9.63838L1.94501 9.23999L4.44499 7.6272L1 5.75999V4.32001L7 0.959999L13 4.32001V5.75999ZM8.70504 2.88C8.22196 2.5636 7.64983 2.39614 7.06505 2.40001C6.31735 2.36267 5.58898 2.63538 5.06505 3.14881C4.64602 3.57466 4.41954 4.14238 4.43505 4.728C4.42075 5.11102 4.52329 5.48973 4.73004 5.81761C4.97086 6.1716 5.32031 6.44499 5.73004 6.60001C6.19317 6.76654 6.68569 6.8448 7.18003 6.8304C7.63274 6.83404 8.08429 6.78569 8.52504 6.6864C8.72988 6.63577 8.93184 6.5749 9.13004 6.504L8.93504 6.02398C8.75536 6.08782 8.57164 6.14072 8.38503 6.18239C7.9935 6.27107 7.59231 6.3146 7.19003 6.312C6.88641 6.32381 6.58248 6.29964 6.28502 6.24001C6.00261 6.18056 5.74192 6.04961 5.53001 5.86081C5.22978 5.57241 5.07472 5.17311 5.10501 4.7664C5.08983 4.33154 5.24102 3.90639 5.53001 3.57121C5.92052 3.15488 6.48749 2.9322 7.07002 2.96641C7.54493 2.94721 8.01242 3.08441 8.39503 3.35521C8.73536 3.62157 8.92141 4.02885 8.89501 4.44962C8.90448 4.64608 8.86505 4.84187 8.78 5.02082C8.71047 5.17192 8.55197 5.26703 8.38 5.26081C8.2883 5.26943 8.1982 5.23338 8.14001 5.16482C8.09574 5.0717 8.07682 4.96929 8.08502 4.86721V3.6144H7.585L7.55501 3.86399C7.51638 3.82562 7.47459 3.7903 7.43 3.75838C7.26497 3.65156 7.06889 3.59778 6.86999 3.60478C6.60218 3.59817 6.3428 3.69501 6.14998 3.87357C5.94724 4.08636 5.84107 4.3679 5.85499 4.65596C5.8411 4.94403 5.94724 5.22556 6.14998 5.43836C6.34393 5.62584 6.60981 5.72828 6.88499 5.72155C7.16909 5.72609 7.4418 5.61439 7.635 5.41434C7.67733 5.49177 7.73923 5.55778 7.815 5.60634C7.96656 5.69076 8.13987 5.73236 8.31501 5.72635C8.48612 5.72586 8.65564 5.69494 8.81503 5.63516C8.9753 5.57205 9.1188 5.47528 9.23502 5.35197C9.4551 5.0781 9.56514 4.73732 9.54504 4.39197C9.54735 4.1292 9.49109 3.86897 9.38003 3.62877C9.2283 3.32608 8.99532 3.06764 8.70504 2.88ZM7.35001 5.07361C7.25292 5.17974 7.11211 5.23945 6.96501 5.23681C6.8239 5.24332 6.68813 5.18441 6.6 5.07841C6.50539 4.95894 6.45919 4.81052 6.46999 4.66081C6.46096 4.51129 6.50698 4.36346 6.6 4.24322C6.68856 4.14104 6.82164 4.08427 6.96001 4.08961C7.10883 4.08556 7.25179 4.14537 7.35001 4.25282C7.44642 4.37161 7.4944 4.52008 7.48502 4.67041C7.49123 4.81592 7.44338 4.95881 7.35001 5.07361Z" fill="#4C4C4C"/>
</svg>
