<svg width="30" height="30" viewBox="0 0 30 30" fill="none" xmlns="http://www.w3.org/2000/svg">
<g clip-path="url(#clip0)">
<path d="M21.4816 0.615356H8.28755C3.99342 0.615356 0.5 4.10878 0.5 8.40291V21.5972C0.5 25.8911 3.99342 29.3845 8.28755 29.3845H21.4818C25.7757 29.3845 29.2692 25.8911 29.2692 21.5972V8.40291C29.2692 4.10878 25.7757 0.615356 21.4816 0.615356V0.615356ZM14.8846 22.8663C10.547 22.8663 7.01824 19.3375 7.01824 14.9999C7.01824 10.6624 10.547 7.13359 14.8846 7.13359C19.2222 7.13359 22.7509 10.6624 22.7509 14.9999C22.7509 19.3375 19.2222 22.8663 14.8846 22.8663ZM22.939 8.98873C21.6572 8.98873 20.6146 7.94615 20.6146 6.66432C20.6146 5.38249 21.6572 4.33969 22.939 4.33969C24.2209 4.33969 25.2637 5.38249 25.2637 6.66432C25.2637 7.94615 24.2209 8.98873 22.939 8.98873Z" fill="#BBBBBB"/>
<path d="M14.8847 8.82031C11.4774 8.82031 8.70496 11.5925 8.70496 15.0001C8.70496 18.4075 11.4774 21.1799 14.8847 21.1799C18.2923 21.1799 21.0645 18.4075 21.0645 15.0001C21.0645 11.5925 18.2923 8.82031 14.8847 8.82031Z" fill="#BBBBBB"/>
<path d="M22.939 6.02661C22.5874 6.02661 22.3011 6.31283 22.3011 6.66445C22.3011 7.01608 22.5874 7.30229 22.939 7.30229C23.2908 7.30229 23.577 7.0163 23.577 6.66445C23.577 6.31261 23.2908 6.02661 22.939 6.02661Z" fill="#BBBBBB"/>
</g>
<defs>
<clipPath id="clip0">
<path d="M0.5 0.615356H29.2692V29.3846H0.5V0.615356Z" fill="white"/>
</clipPath>
</defs>
</svg>
