<svg width="18" height="18" viewBox="0 0 18 18" fill="none" xmlns="http://www.w3.org/2000/svg">
<path d="M8.13073 10.5995V10.9246H9.67002V10.593C9.67002 10.2852 9.72156 10.0533 9.82462 9.89728C9.92769 9.7369 10.145 9.56351 10.4766 9.37712C11.1354 9.00001 11.5835 8.69875 11.821 8.47335C12.2736 8.05289 12.4999 7.47205 12.4999 6.73083C12.4999 5.90725 12.2131 5.24621 11.6395 4.74773C11.057 4.24925 10.2795 4.00001 9.30704 4.00001C8.0523 4.00001 7.13814 4.4183 6.56454 5.25488C6.24638 5.71002 6.05816 6.3147 5.99991 7.06893H7.52576C7.58402 6.61379 7.68709 6.27569 7.83496 6.05462C8.13521 5.61249 8.61022 5.39143 9.25999 5.39143C9.73948 5.39143 10.1271 5.51063 10.4229 5.74903C10.7007 5.9701 10.8396 6.28436 10.8396 6.69182C10.8396 7.02125 10.7612 7.29433 10.6044 7.51106C10.4475 7.72779 10.1674 7.94886 9.76413 8.17426C9.32049 8.42133 9.02249 8.60339 8.87012 8.72042C8.71776 8.83312 8.58557 8.974 8.47354 9.14305C8.245 9.47682 8.13073 9.9623 8.13073 10.5995Z" fill="#B90A05"/>
<path d="M9.71035 12.2705C9.49077 12.0451 9.22638 11.9324 8.91718 11.9324C8.60797 11.9324 8.34358 12.0321 8.124 12.2315C7.9089 12.4309 7.80136 12.6736 7.80136 12.9597C7.80136 13.2501 7.90666 13.4972 8.11728 13.7009C8.33238 13.9003 8.59229 14 8.89701 14C9.17485 14 9.41907 13.9111 9.62969 13.7334C9.87168 13.5297 9.99267 13.274 9.99267 12.9662C9.99267 12.7018 9.89856 12.4699 9.71035 12.2705Z" fill="#B90A05"/>
<path fill-rule="evenodd" clip-rule="evenodd" d="M18 9C18 13.9706 13.9706 18 9 18C4.02944 18 0 13.9706 0 9C0 4.02944 4.02944 0 9 0C13.9706 0 18 4.02944 18 9ZM16.5 9C16.5 13.1421 13.1421 16.5 9 16.5C4.85786 16.5 1.5 13.1421 1.5 9C1.5 4.85786 4.85786 1.5 9 1.5C13.1421 1.5 16.5 4.85786 16.5 9Z" fill="#B90A05"/>
</svg>
