<svg width="32" height="26" viewBox="0 0 32 26" fill="none" xmlns="http://www.w3.org/2000/svg">
<path d="M31.6539 3.26893C30.4868 3.78089 29.2432 4.12024 27.9466 4.28501C29.2804 3.48862 30.2985 2.23716 30.7771 0.728737C29.5335 1.4702 28.1604 1.99393 26.6971 2.2862C25.5162 1.02885 23.8332 0.250122 21.9972 0.250122C18.4351 0.250122 15.5673 3.14143 15.5673 6.68593C15.5673 7.19593 15.6105 7.68631 15.7164 8.15316C10.3673 7.89227 5.63409 5.32855 2.45444 1.42312C1.89933 2.38624 1.57371 3.48862 1.57371 4.67535C1.57371 6.90366 2.72121 8.87893 4.43167 10.0225C3.39794 10.0029 2.38383 9.70278 1.52467 9.23004C1.52467 9.24966 1.52467 9.27516 1.52467 9.30066C1.52467 12.4274 3.75494 15.0244 6.67959 15.6227C6.15586 15.7659 5.58506 15.8345 4.99267 15.8345C4.58075 15.8345 4.1649 15.811 3.77456 15.7247C4.60821 18.2727 6.97383 20.146 9.78667 20.2068C7.5976 21.9192 4.81809 22.951 1.80909 22.951C1.28144 22.951 0.775364 22.9275 0.269287 22.8627C3.1194 24.7007 6.49717 25.7501 10.1397 25.7501C21.9796 25.7501 28.4527 15.9424 28.4527 7.44112C28.4527 7.1567 28.4429 6.88208 28.4291 6.60943C29.7061 5.7032 30.7791 4.57139 31.6539 3.26893Z" fill="#BBBBBB"/>
</svg>
