<svg width="20" height="34" viewBox="0 0 20 34" fill="none" xmlns="http://www.w3.org/2000/svg">
<path d="M18.4988 0.00707427L14.0898 0C9.13641 0 5.93534 3.28423 5.93534 8.36745V12.2254H1.50229C1.11922 12.2254 0.809021 12.536 0.809021 12.919V18.5088C0.809021 18.8918 1.11958 19.202 1.50229 19.202H5.93534V33.3067C5.93534 33.6898 6.24554 34 6.62861 34H12.4125C12.7955 34 13.1057 33.6894 13.1057 33.3067V19.202H18.289C18.6721 19.202 18.9823 18.8918 18.9823 18.5088L18.9844 12.919C18.9844 12.7351 18.9112 12.559 18.7814 12.4288C18.6516 12.2986 18.4747 12.2254 18.2908 12.2254H13.1057V8.95496C13.1057 7.38306 13.4803 6.58508 15.528 6.58508L18.4981 6.58402C18.8808 6.58402 19.191 6.27346 19.191 5.89074V0.700353C19.191 0.317988 18.8811 0.0077817 18.4988 0.00707427Z" fill="#BBBBBB"/>
</svg>
