
<svg width="40" height="40" viewBox="0 0 40 40" fill="none" xmlns="http://www.w3.org/2000/svg">
<path fill-rule="evenodd" clip-rule="evenodd" d="M19.2727 10V11.3121C16.0795 11.6667 13.5962 14.3745 13.5962 17.6623V20.9304L11.2727 22.2576V25.8182H28.7273V22.2576L26.3754 20.9143V17.6623C26.3754 14.3842 23.9068 11.6827 20.7273 11.3153V10H19.2727ZM24.83 21.8113V17.6623C24.83 14.987 22.6612 12.8182 19.9858 12.8182C17.3105 12.8182 15.1417 14.987 15.1417 17.6623V21.8275L12.8182 23.1546V24.2727H27.1818V23.1546L24.83 21.8113Z" fill="black"/>
<path d="M20 29.625C18.3959 29.625 17.0909 28.6949 17.0909 27.0909H18.5454C18.5454 27.8929 19.198 28.1705 20 28.1705C20.8019 28.1705 21.4545 27.8929 21.4545 27.0909H22.9091C22.9091 28.6949 21.6041 29.625 20 29.625Z" fill="black"/>
</svg>
