<svg width="22" height="18" viewBox="0 0 22 18" fill="none" xmlns="http://www.w3.org/2000/svg">
<path d="M21.5 3V8.2491C21.5 9.90322 20.1541 11.2491 18.4998 11.2491L18.4995 14.2493H17.0646L15.5 12.6845V10.563L16.9998 12.0629L17.0002 9.74902H18.5C19.327 9.74902 20 9.07605 20 8.24903V3C20 2.17298 19.327 1.5 18.5 1.5H11C10.4473 1.5 9.9689 1.8039 9.70865 2.25H8.0987C8.43305 0.958275 9.60515 0 11 0H18.5C20.1543 0 21.5 1.34588 21.5 3Z" fill="#B90A05"/>
<path d="M5.58131 7.31803C5.94911 6.83029 6.52842 6.60004 7.2829 6.60004C7.8667 6.60004 8.35099 6.73634 8.72072 7.02424L8.72161 7.02493C9.08953 7.3159 9.27494 7.7068 9.27494 8.18372C9.27494 8.6099 9.13001 8.95926 8.83071 9.21258C8.67904 9.34339 8.40666 9.50825 8.02697 9.70605L8.02598 9.70657C7.83767 9.80289 7.74104 9.88023 7.70403 9.93263L7.70291 9.93422C7.67017 9.97933 7.64231 10.064 7.64231 10.2113V10.5354H6.45426V10.2148C6.45426 9.86438 6.52268 9.57252 6.68146 9.3609C6.75561 9.2593 6.84382 9.17351 6.94598 9.10456C7.04397 9.03625 7.22451 8.9366 7.47869 8.80778C7.70503 8.69266 7.84361 8.58842 7.91395 8.49998C7.97952 8.41753 8.01708 8.30896 8.01708 8.16323C8.01708 7.99288 7.95646 7.87506 7.83868 7.78977L7.83793 7.78923C7.69993 7.688 7.51025 7.63053 7.25576 7.63053C6.91322 7.63053 6.69107 7.73485 6.55418 7.91797C6.49049 8.00486 6.43593 8.15351 6.40378 8.38211L6.38562 8.51122H5.21167L5.22548 8.34853C5.26073 7.93318 5.37576 7.58587 5.58131 7.31803Z" fill="#B90A05"/>
<path d="M6.50483 11.1417C6.66076 11.0129 6.84792 10.9503 7.05798 10.9503C7.27316 10.9503 7.46264 11.0231 7.61798 11.1682L7.6197 11.1698C7.7548 11.3001 7.82846 11.4598 7.82846 11.6431C7.82846 11.8559 7.73315 12.0325 7.56027 12.1649C7.41131 12.2793 7.23798 12.3358 7.04635 12.3358C6.8383 12.3358 6.65326 12.2729 6.49979 12.1435L6.49737 12.1414C6.34577 12.008 6.26424 11.8382 6.26424 11.6397C6.26424 11.4414 6.34889 11.2732 6.50366 11.1427L6.50483 11.1417Z" fill="#B90A05"/>
<path fill-rule="evenodd" clip-rule="evenodd" d="M14 6.75V12C14 13.6541 12.6543 15 11 15L7.92605 15.0088L4.93468 18H3.5V15C1.84573 15 0.5 13.6541 0.5 12V6.75C0.5 5.09588 1.84573 3.75 3.5 3.75H11C12.6543 3.75 14 5.09588 14 6.75ZM12.5 6.75C12.5 5.92297 11.827 5.25 11 5.25H3.5C2.67298 5.25 2 5.92297 2 6.75V12C2 12.827 2.67298 13.5 3.5 13.5H5V15.8136L7.30288 13.5106L10.9978 13.5C11.8271 13.5 12.5 12.827 12.5 12V6.75Z" fill="#B90A05"/>
</svg>
